<svg width="20" height="20" viewBox="0 0 20 20" fill="none" xmlns="http://www.w3.org/2000/svg">
<path fill-rule="evenodd" clip-rule="evenodd" d="M9.9999 19.6C12.546 19.6 14.9878 18.5886 16.7881 16.7882C18.5885 14.9879 19.5999 12.5461 19.5999 10C19.5999 7.45392 18.5885 5.01212 16.7881 3.21177C14.9878 1.41143 12.546 0.4 9.9999 0.4C7.45382 0.4 5.01203 1.41143 3.21168 3.21177C1.41133 5.01212 0.399902 7.45392 0.399902 10C0.399902 12.5461 1.41133 14.9879 3.21168 16.7882C5.01203 18.5886 7.45382 19.6 9.9999 19.6V19.6ZM6.3999 8.8C6.71816 8.8 7.02339 8.67357 7.24843 8.44853C7.47347 8.22348 7.5999 7.91826 7.5999 7.6C7.5999 7.28174 7.47347 6.97652 7.24843 6.75147C7.02339 6.52643 6.71816 6.4 6.3999 6.4C6.08164 6.4 5.77642 6.52643 5.55137 6.75147C5.32633 6.97652 5.1999 7.28174 5.1999 7.6C5.1999 7.91826 5.32633 8.22348 5.55137 8.44853C5.77642 8.67357 6.08164 8.8 6.3999 8.8ZM14.7999 7.6C14.7999 7.91826 14.6735 8.22348 14.4484 8.44853C14.2234 8.67357 13.9182 8.8 13.5999 8.8C13.2816 8.8 12.9764 8.67357 12.7514 8.44853C12.5263 8.22348 12.3999 7.91826 12.3999 7.6C12.3999 7.28174 12.5263 6.97652 12.7514 6.75147C12.9764 6.52643 13.2816 6.4 13.5999 6.4C13.9182 6.4 14.2234 6.52643 14.4484 6.75147C14.6735 6.97652 14.7999 7.28174 14.7999 7.6ZM14.2431 14.242C14.3545 14.1305 14.4429 13.9982 14.5031 13.8525C14.5634 13.7069 14.5944 13.5508 14.5943 13.3932C14.5943 13.2356 14.5632 13.0795 14.5028 12.9339C14.4425 12.7883 14.354 12.656 14.2425 12.5446C14.131 12.4332 13.9987 12.3448 13.853 12.2846C13.7074 12.2243 13.5513 12.1933 13.3937 12.1934C13.2361 12.1934 13.08 12.2245 12.9344 12.2849C12.7888 12.3453 12.6565 12.4337 12.5451 12.5452C11.87 13.2201 10.9545 13.5992 9.9999 13.5992C9.04531 13.5992 8.1298 13.2201 7.4547 12.5452C7.22969 12.32 6.92445 12.1935 6.60613 12.1934C6.2878 12.1932 5.98247 12.3196 5.7573 12.5446C5.53213 12.7696 5.40557 13.0749 5.40546 13.3932C5.40535 13.7115 5.53169 14.0168 5.7567 14.242C6.31388 14.7993 6.97538 15.2414 7.70344 15.543C8.43149 15.8447 9.21184 15.9999 9.9999 15.9999C10.788 15.9999 11.5683 15.8447 12.2964 15.543C13.0244 15.2414 13.6859 14.7993 14.2431 14.242V14.242Z" fill="#333333"/>
</svg>
