<svg width="24" height="24" viewBox="0 0 24 24" fill="none" xmlns="http://www.w3.org/2000/svg">
<path d="M10.4482 8.7516C10.2219 8.53301 9.91876 8.41206 9.60412 8.41479C9.28949 8.41752 8.98851 8.54373 8.76602 8.76622C8.54353 8.98871 8.41733 9.28968 8.4146 9.60432C8.41186 9.91896 8.53282 10.2221 8.75141 10.4484L11.1514 12.8484C11.3764 13.0734 11.6816 13.1997 11.9998 13.1997C12.318 13.1997 12.6232 13.0734 12.8482 12.8484L15.2482 10.4484C15.4668 10.2221 15.5877 9.91896 15.585 9.60432C15.5823 9.28968 15.4561 8.98871 15.2336 8.76622C15.0111 8.54373 14.7101 8.41752 14.3955 8.41479C14.0809 8.41206 13.7777 8.53301 13.5514 8.7516L13.1998 9.1032V3.6C13.1998 3.28174 13.0734 2.97652 12.8483 2.75147C12.6233 2.52643 12.3181 2.4 11.9998 2.4C11.6815 2.4 11.3763 2.52643 11.1513 2.75147C10.9262 2.97652 10.7998 3.28174 10.7998 3.6V9.1032L10.4482 8.7516Z" fill="#111827"/>
<path d="M3.6001 6C3.6001 5.36348 3.85295 4.75303 4.30304 4.30294C4.75313 3.85286 5.36358 3.6 6.0001 3.6H7.2001C7.51836 3.6 7.82358 3.72643 8.04863 3.95147C8.27367 4.17652 8.4001 4.48174 8.4001 4.8C8.4001 5.11826 8.27367 5.42348 8.04863 5.64853C7.82358 5.87357 7.51836 6 7.2001 6H6.0001V14.4H8.4001L9.6001 16.8H14.4001L15.6001 14.4H18.0001V6H16.8001C16.4818 6 16.1766 5.87357 15.9516 5.64853C15.7265 5.42348 15.6001 5.11826 15.6001 4.8C15.6001 4.48174 15.7265 4.17652 15.9516 3.95147C16.1766 3.72643 16.4818 3.6 16.8001 3.6H18.0001C18.6366 3.6 19.2471 3.85286 19.6972 4.30294C20.1472 4.75303 20.4001 5.36348 20.4001 6V18C20.4001 18.6365 20.1472 19.247 19.6972 19.6971C19.2471 20.1471 18.6366 20.4 18.0001 20.4H6.0001C5.36358 20.4 4.75313 20.1471 4.30304 19.6971C3.85295 19.247 3.6001 18.6365 3.6001 18V6Z" fill="#111827"/>
</svg>
