<svg width="20" height="20" viewBox="0 0 20 20" fill="none" xmlns="http://www.w3.org/2000/svg">
<path fill-rule="evenodd" clip-rule="evenodd" d="M13.103 3.5032C13.3244 3.27398 13.5892 3.09114 13.882 2.96536C14.1748 2.83958 14.4898 2.77337 14.8084 2.7706C15.1271 2.76783 15.4431 2.82856 15.7381 2.94923C16.033 3.0699 16.301 3.24811 16.5264 3.47345C16.7517 3.6988 16.9299 3.96676 17.0506 4.26171C17.1713 4.55666 17.232 4.87269 17.2292 5.19136C17.2264 5.51003 17.1602 5.82496 17.0344 6.11777C16.9087 6.41058 16.7258 6.67541 16.4966 6.8968L12.8966 10.4968C12.4465 10.9467 11.8362 11.1995 11.1998 11.1995C10.5634 11.1995 9.95307 10.9467 9.503 10.4968C9.27668 10.2782 8.97356 10.1573 8.65892 10.16C8.34429 10.1627 8.04331 10.2889 7.82082 10.5114C7.59833 10.7339 7.47213 11.0349 7.4694 11.3495C7.46666 11.6642 7.58761 11.9673 7.8062 12.1936C8.70634 13.0935 9.92702 13.599 11.1998 13.599C12.4726 13.599 13.6933 13.0935 14.5934 12.1936L18.1934 8.5936C19.0678 7.68831 19.5516 6.47582 19.5406 5.21728C19.5297 3.95873 19.0249 2.75483 18.1349 1.86487C17.245 0.974913 16.0411 0.470102 14.7825 0.459166C13.524 0.448229 12.3115 0.932042 11.4062 1.8064L9.6062 3.6064C9.49159 3.7171 9.40017 3.84951 9.33728 3.99592C9.27439 4.14232 9.24129 4.29978 9.2399 4.45912C9.23852 4.61846 9.26888 4.77647 9.32922 4.92395C9.38956 5.07142 9.47866 5.2054 9.59133 5.31808C9.704 5.43075 9.83798 5.51985 9.98546 5.58019C10.1329 5.64052 10.291 5.67089 10.4503 5.6695C10.6096 5.66812 10.7671 5.63501 10.9135 5.57212C11.0599 5.50923 11.1923 5.41781 11.303 5.3032L13.103 3.5032V3.5032ZM7.103 9.5032C7.55307 9.05327 8.16341 8.80051 8.7998 8.80051C9.4362 8.80051 10.0465 9.05327 10.4966 9.5032C10.6073 9.61781 10.7397 9.70923 10.8861 9.77212C11.0325 9.83501 11.19 9.86812 11.3493 9.8695C11.5087 9.87089 11.6667 9.84053 11.8141 9.78019C11.9616 9.71985 12.0956 9.63075 12.2083 9.51808C12.3209 9.40541 12.4101 9.27142 12.4704 9.12395C12.5307 8.97647 12.5611 8.81846 12.5597 8.65912C12.5583 8.49979 12.5252 8.34232 12.4623 8.19592C12.3994 8.04951 12.308 7.9171 12.1934 7.8064C11.2933 6.90654 10.0726 6.40103 8.7998 6.40103C7.52702 6.40103 6.30634 6.90654 5.4062 7.8064L1.8062 11.4064C1.34775 11.8492 0.98208 12.3788 0.730517 12.9645C0.478954 13.5501 0.34654 14.1799 0.341002 14.8173C0.335463 15.4546 0.456911 16.0867 0.69826 16.6766C0.939608 17.2665 1.29602 17.8024 1.74671 18.2531C2.19739 18.7038 2.73332 19.0602 3.32322 19.3015C3.91313 19.5429 4.54519 19.6643 5.18253 19.6588C5.81987 19.6533 6.44973 19.5209 7.03535 19.2693C7.62096 19.0177 8.15062 18.6521 8.5934 18.1936L10.3934 16.3936C10.508 16.2829 10.5994 16.1505 10.6623 16.0041C10.7252 15.8577 10.7583 15.7002 10.7597 15.5409C10.7611 15.3815 10.7307 15.2235 10.6704 15.0761C10.6101 14.9286 10.5209 14.7946 10.4083 14.6819C10.2956 14.5693 10.1616 14.4802 10.0141 14.4198C9.86667 14.3595 9.70866 14.3291 9.54932 14.3305C9.38999 14.3319 9.23252 14.365 9.08612 14.4279C8.93971 14.4908 8.8073 14.5822 8.6966 14.6968L6.8966 16.4968C6.67521 16.726 6.41038 16.9089 6.11757 17.0346C5.82477 17.1604 5.50984 17.2266 5.19117 17.2294C4.8725 17.2322 4.55647 17.1714 4.26151 17.0508C3.96656 16.9301 3.6986 16.7519 3.47326 16.5266C3.24791 16.3012 3.06971 16.0332 2.94903 15.7383C2.82836 15.4433 2.76763 15.1273 2.7704 14.8086C2.77317 14.49 2.83938 14.175 2.96516 13.8822C3.09094 13.5894 3.27378 13.3246 3.503 13.1032L7.103 9.5032Z" fill="#333333"/>
</svg>
