<svg width="16" height="19" viewBox="0 0 16 19" fill="none" xmlns="http://www.w3.org/2000/svg">
<path fill-rule="evenodd" clip-rule="evenodd" d="M0.799805 3.00001C0.799805 2.36349 1.05266 1.75304 1.50275 1.30295C1.95284 0.852862 2.56329 0.600006 3.1998 0.600006C3.1998 1.55479 3.57909 2.47046 4.25422 3.14559C4.92935 3.82072 5.84503 4.20001 6.7998 4.20001H9.19981C10.1546 4.20001 11.0703 3.82072 11.7454 3.14559C12.4205 2.47046 12.7998 1.55479 12.7998 0.600006C13.4363 0.600006 14.0468 0.852862 14.4969 1.30295C14.9469 1.75304 15.1998 2.36349 15.1998 3.00001V16.2C15.1998 16.8365 14.9469 17.447 14.4969 17.8971C14.0468 18.3471 13.4363 18.6 12.7998 18.6H3.1998C2.56329 18.6 1.95284 18.3471 1.50275 17.8971C1.05266 17.447 0.799805 16.8365 0.799805 16.2V3.00001ZM12.4482 9.84841C12.6668 9.62208 12.7877 9.31896 12.785 9.00433C12.7823 8.68969 12.6561 8.38871 12.4336 8.16622C12.2111 7.94373 11.9101 7.81753 11.5955 7.8148C11.2808 7.81206 10.9777 7.93302 10.7514 8.15161L6.7998 12.1032L5.2482 10.5516C5.02188 10.333 4.71876 10.2121 4.40412 10.2148C4.08949 10.2175 3.78851 10.3437 3.56602 10.5662C3.34353 10.7887 3.21733 11.0897 3.2146 11.4043C3.21186 11.719 3.33282 12.0221 3.55141 12.2484L5.95141 14.6484C6.17644 14.8734 6.48161 14.9998 6.7998 14.9998C7.118 14.9998 7.42317 14.8734 7.6482 14.6484L12.4482 9.84841V9.84841Z" fill="#333333"/>
</svg>
