<svg width="25" height="25" viewBox="0 0 25 25" fill="none" xmlns="http://www.w3.org/2000/svg">
<path fill-rule="evenodd" clip-rule="evenodd" d="M3.75 3.75C3.41848 3.75 3.10054 3.8817 2.86612 4.11612C2.6317 4.35054 2.5 4.66848 2.5 5V20C2.5 20.3315 2.6317 20.6495 2.86612 20.8839C3.10054 21.1183 3.41848 21.25 3.75 21.25C4.08152 21.25 4.39946 21.1183 4.63388 20.8839C4.8683 20.6495 5 20.3315 5 20V5C5 4.66848 4.8683 4.35054 4.63388 4.11612C4.39946 3.8817 4.08152 3.75 3.75 3.75ZM16.6163 15.3663C16.3886 15.602 16.2626 15.9178 16.2654 16.2455C16.2683 16.5732 16.3997 16.8868 16.6315 17.1185C16.8632 17.3503 17.1768 17.4817 17.5045 17.4846C17.8322 17.4874 18.148 17.3614 18.3837 17.1337L22.1338 13.3837C22.3681 13.1493 22.4997 12.8315 22.4997 12.5C22.4997 12.1685 22.3681 11.8507 22.1338 11.6163L18.3837 7.86625C18.2684 7.74686 18.1305 7.65163 17.978 7.58612C17.8255 7.52061 17.6615 7.48613 17.4955 7.48469C17.3295 7.48324 17.1649 7.51487 17.0113 7.57772C16.8577 7.64057 16.7181 7.73339 16.6008 7.85076C16.4834 7.96812 16.3906 8.10769 16.3277 8.26131C16.2649 8.41493 16.2332 8.57953 16.2347 8.7455C16.2361 8.91148 16.2706 9.0755 16.3361 9.22801C16.4016 9.38051 16.4969 9.51844 16.6163 9.63375L18.2325 11.25H8.75C8.41848 11.25 8.10054 11.3817 7.86612 11.6161C7.6317 11.8505 7.5 12.1685 7.5 12.5C7.5 12.8315 7.6317 13.1495 7.86612 13.3839C8.10054 13.6183 8.41848 13.75 8.75 13.75H18.2325L16.6163 15.3663Z" fill="black"/>
</svg>
