<?xml version="1.0" encoding="UTF-8"?>
<svg id="Layer_1" data-name="Layer 1" xmlns="http://www.w3.org/2000/svg" viewBox="0 0 21.6 16.8">
  <defs>
    <style>
      .cls-1 {
        fill: #333;
        stroke-width: 0px;
      }
    </style>
  </defs>
  <path class="cls-1" d="M9.6,3.6c0,.95-.38,1.87-1.05,2.55-.68.68-1.59,1.05-2.55,1.05s-1.87-.38-2.55-1.05c-.68-.68-1.05-1.59-1.05-2.55s.38-1.87,1.05-2.55c.68-.68,1.59-1.05,2.55-1.05s1.87.38,2.55,1.05c.68.68,1.05,1.59,1.05,2.55h0ZM19.2,3.6c0,.47-.09.94-.27,1.38-.18.44-.45.83-.78,1.17-.33.33-.73.6-1.17.78-.44.18-.9.27-1.38.27s-.94-.09-1.38-.27c-.44-.18-.83-.45-1.17-.78-.33-.33-.6-.73-.78-1.17-.18-.44-.27-.9-.27-1.38,0-.95.38-1.87,1.05-2.55.68-.68,1.59-1.05,2.55-1.05s1.87.38,2.55,1.05c.68.68,1.05,1.59,1.05,2.55h0ZM14.32,16.8c.06-.39.08-.79.08-1.2,0-1.89-.63-3.72-1.8-5.2.91-.53,1.95-.8,3-.8,1.05,0,2.09.28,3,.8s1.67,1.28,2.2,2.2c.53.91.8,1.95.8,3v1.2h-7.28ZM6,9.6c1.59,0,3.12.63,4.24,1.76,1.13,1.13,1.76,2.65,1.76,4.24v1.2H0v-1.2c0-1.59.63-3.12,1.76-4.24,1.13-1.13,2.65-1.76,4.24-1.76h0Z"/>
</svg>